<?xml version="1.0" encoding="utf-8"?>
<!-- Generator: Adobe Illustrator 24.1.0, SVG Export Plug-In . SVG Version: 6.00 Build 0)  -->
<svg version="1.1" id="Layer_1" xmlns="http://www.w3.org/2000/svg" xmlns:xlink="http://www.w3.org/1999/xlink" x="0px" y="0px"
	 viewBox="0 0 3300 2200" style="enable-background:new 0 0 3300 2200;" xml:space="preserve">
<style type="text/css">
	.st0{fill:#FFFFFF;}
	.st1{fill:none;stroke:#000000;stroke-width:0.5;}
	.st2{font-family:'Arial-BoldMT';}
	.st3{font-size:12px;}
	.st4{font-family:'ArialMT';}
	.st5{opacity:0.4;fill:#00AEEF;enable-background:new    ;}
	.st6{fill:#27AAE1;}
	.st7{fill:none;stroke:#27AAE1;stroke-width:0.577;}
</style>
<g id="Notes">
	<rect id="artboard" class="st0" width="3300" height="2200"/>
	<line class="st1" x1="263" y1="292" x2="3036" y2="292"/>
	<text transform="matrix(1 0 0 1 263 322)" class="st2 st3">Weight/Scale Variations</text>
	<text transform="matrix(1 0 0 1 536.0362 322)" class="st4 st3">Ultralight</text>
	<text transform="matrix(1 0 0 1 844.7501 322)" class="st4 st3">Thin</text>
	<text transform="matrix(1 0 0 1 1140.1193 322)" class="st4 st3">Light</text>
	<text transform="matrix(1 0 0 1 1428.8282 322)" class="st4 st3">Regular</text>
	<text transform="matrix(1 0 0 1 1725.2202 322)" class="st4 st3">Medium</text>
	<text transform="matrix(1 0 0 1 2018.2563 322)" class="st4 st3">Semibold</text>
	<text transform="matrix(1 0 0 1 2327.9712 322)" class="st4 st3">Bold</text>
	<text transform="matrix(1 0 0 1 2619.6831 322)" class="st4 st3">Heavy</text>
	<text transform="matrix(1 0 0 1 2918.728 322)" class="st4 st3">Black</text>
	<line class="st1" x1="263" y1="1903" x2="3036" y2="1903"/>
	<g transform="matrix(1 0 0 1 263 1933)">
		<path d="M9.2,0.8c4.3,0,7.9-3.6,7.9-7.9c0-4.3-3.6-7.9-7.9-7.9c-4.3,0-7.9,3.6-7.9,7.9C1.4-2.7,5,0.8,9.2,0.8z M9.2-0.7
			c-3.5,0-6.4-2.8-6.4-6.4c0-3.6,2.8-6.4,6.4-6.4c3.6,0,6.4,2.8,6.4,6.4C15.7-3.5,12.8-0.7,9.2-0.7z M9.2-3.4c0.5,0,0.7-0.3,0.7-0.8
			v-2.1h2.2C12.7-6.3,13-6.6,13-7c0-0.5-0.3-0.7-0.8-0.7H10V-10c0-0.5-0.3-0.8-0.7-0.8S8.5-10.5,8.5-10v2.2H6.3
			C5.8-7.8,5.4-7.5,5.4-7c0,0.5,0.4,0.7,0.8,0.7h2.2v2.1C8.5-3.8,8.8-3.4,9.2-3.4z"/>
	</g>
	<g transform="matrix(1 0 0 1 281.506 1933)">
		<path d="M11.7,2.9c5.4,0,10-4.5,10-10c0-5.4-4.5-10-10-10c-5.4,0-10,4.5-10,10C1.7-1.6,6.3,2.9,11.7,2.9z M11.7,1.2
			c-4.6,0-8.3-3.7-8.3-8.3c0-4.6,3.7-8.3,8.3-8.3c4.6,0,8.3,3.7,8.3,8.3C20-2.4,16.3,1.2,11.7,1.2z M11.7-2.4c0.5,0,0.8-0.4,0.8-0.9
			v-2.9h3.1c0.5,0,0.9-0.3,0.9-0.8c0-0.5-0.4-0.8-0.9-0.8h-3.1v-3.1c0-0.6-0.3-0.9-0.8-0.9c-0.5,0-0.8,0.4-0.8,0.9v3.1h-3
			C7.3-7.9,6.9-7.6,6.9-7c0,0.5,0.4,0.8,0.9,0.8h3v2.9C10.9-2.8,11.2-2.4,11.7-2.4z"/>
	</g>
	<g transform="matrix(1 0 0 1 304.924 1933)">
		<path d="M15,5.7c7,0,12.7-5.8,12.7-12.7c0-7-5.8-12.7-12.7-12.7C8-19.8,2.3-14,2.3-7C2.3-0.1,8,5.7,15,5.7z M15,3.9
			C8.9,3.9,4.1-1,4.1-7c0-6,4.8-10.9,10.9-10.9c6,0,10.9,4.9,10.9,10.9C25.9-1,21,3.9,15,3.9z M15-1.1c0.6,0,0.9-0.4,0.9-1v-4.1h4.2
			c0.6,0,1-0.3,1-0.9c0-0.6-0.4-0.9-1-0.9h-4.2v-4.2c0-0.6-0.4-1-0.9-1c-0.6,0-0.9,0.4-0.9,1v4.2H9.8c-0.6,0-1,0.3-1,0.9
			c0,0.6,0.4,0.9,1,0.9h4.2v4.1C14.1-1.5,14.4-1.1,15-1.1z"/>
	</g>
	<text transform="matrix(1 0 0 1 263 1953)" class="st2 st3">Design Variations</text>
	<text transform="matrix(1 0 0 1 263 1971)" class="st4 st3">Symbols are supported in up to nine weights and three scales.</text>
	<text transform="matrix(1 0 0 1 263 1989)" class="st4 st3">For optimal layout with text and other symbols, vertically align</text>
	<text transform="matrix(1 0 0 1 263 2007)" class="st4 st3">symbols with the adjacent text.</text>
	<rect x="776" y="1919" class="st5" width="3" height="14"/>
	<g transform="matrix(1 0 0 1 779 1933)">
		<path d="M10.5,0h1.8L7.2-14.1H5.4L0.2,0h1.8l1.4-4h5.6L10.5,0z M6.3-12L6.3-12l2.3,6.4H4L6.3-12z"/>
	</g>
	<rect x="791.6" y="1919" class="st5" width="3" height="14"/>
	<text transform="matrix(1 0 0 1 776 1953)" class="st2 st3">Margins</text>
	<text transform="matrix(1 0 0 1 776 1971)" class="st4 st3">Leading and trailing margins on the left and right side of each symbol</text>
	<text transform="matrix(1 0 0 1 776 1989)" class="st4 st3">can be adjusted by modifying the width of the blue rectangles.</text>
	<text transform="matrix(1 0 0 1 776 2007)" class="st4 st3">Modifications are automatically applied proportionally to all</text>
	<text transform="matrix(1 0 0 1 776 2025)" class="st4 st3">scales and weights.</text>
	<g transform="matrix(1 0 0 1 1289 1933)">
		<path d="M2.8,3.1l1.5,1.5c0.8,0.8,1.8,0.8,2.7-0.2L17.3-6.7c0.4,0.3,0.8,0.3,1.3,0.2l1-0.2L20.3-6l0,0.5C20.2-5,20.4-4.5,20.8-4
			l0.8,0.8c0.5,0.5,1.2,0.5,1.6,0.1l3.3-3.3c0.5-0.5,0.5-1.1,0-1.6l-0.8-0.8c-0.5-0.5-0.9-0.7-1.4-0.6l-0.5,0.1l-0.7-0.7l0.3-1.1
			c0.1-0.6,0-1-0.6-1.6l-2.4-2.4c-3.5-3.5-8.1-3.4-11.2-0.3c-0.4,0.4-0.5,1-0.2,1.4c0.2,0.4,0.7,0.6,1.4,0.4c1.5-0.4,3-0.3,4.5,0.7
			l-0.6,1.6c-0.2,0.6-0.2,1.1,0,1.5L3,0.4C2.1,1.3,2,2.3,2.8,3.1z M10.7-15.1c2.7-2,6-1.7,8.4,0.7l2.6,2.6c0.2,0.2,0.3,0.4,0.2,0.7
			l-0.4,1.6L23.1-8L24-8c0.3,0,0.4,0,0.6,0.2l0.6,0.6l-2.8,2.7l-0.6-0.6c-0.2-0.2-0.2-0.3-0.2-0.6l0.1-1l-1.6-1.6l-1.6,0.3
			c-0.3,0.1-0.4,0.1-0.7-0.2l-2.2-2.2c-0.2-0.2-0.3-0.4-0.1-0.7l0.9-2.3c-1.6-1.5-3.7-2.4-5.8-1.7c-0.1,0-0.2,0-0.2,0
			C10.6-15,10.6-15.1,10.7-15.1z M4.1,2.4c-0.5-0.5-0.3-0.8,0-1.1l11-10.1l1.2,1.2L6.2,3.3c-0.3,0.3-0.7,0.4-1.1,0L4.1,2.4z"/>
	</g>
	<text transform="matrix(1 0 0 1 1289 1953)" class="st2 st3">Exporting</text>
	<text transform="matrix(1 0 0 1 1289 1971)" class="st4 st3">Symbols should be outlined when exporting to ensure the</text>
	<text transform="matrix(1 0 0 1 1289 1989)" class="st4 st3">design is preserved when submitting to Xcode.</text>
	<text id="template-version" transform="matrix(1 0 0 1 2958.8496 1933)" class="st4 st3">Template v.1.0</text>
	<text transform="matrix(1 0 0 1 2871.2695 1951)" class="st4 st3">Generated from pencil.circle.fill</text>
	<text transform="matrix(1 0 0 1 2921.9238 1969)" class="st4 st3">Typeset at 100 points</text>
	<text transform="matrix(1 0 0 1 263 726)" class="st4 st3">Small</text>
	<text transform="matrix(1 0 0 1 263 1156)" class="st4 st3">Medium</text>
	<text transform="matrix(1 0 0 1 263 1586)" class="st4 st3">Large</text>
</g>
<g id="H-reference" transform="matrix(1 0 0 1 339 696)">
	<path class="st6" d="M54.9,0h2.7L30.6-70.5h-2.5L1,0h2.7l9.3-24.5h32.8L54.9,0z M29.2-67.1h0.2l15.4,40.4h-31L29.2-67.1z"/>
</g>
<line id="Baseline-S" class="st7" x1="263" y1="696" x2="3036" y2="696"/>
<line id="Capline-S" class="st7" x1="263" y1="625.5" x2="3036" y2="625.5"/>
<g id="H-reference_1_" transform="matrix(1 0 0 1 339 1126)">
	<path class="st6" d="M54.9,0h2.7L30.6-70.5h-2.5L1,0h2.7l9.3-24.5h32.8L54.9,0z M29.2-67.1h0.2l15.4,40.4h-31L29.2-67.1z"/>
</g>
<line id="Baseline-M" class="st7" x1="263" y1="1126" x2="3036" y2="1126"/>
<line id="Capline-M" class="st7" x1="263" y1="1055.5" x2="3036" y2="1055.5"/>
<g id="H-reference_2_" transform="matrix(1 0 0 1 339 1556)">
	<path class="st6" d="M54.9,0h2.7L30.6-70.5h-2.5L1,0h2.7l9.3-24.5h32.8L54.9,0z M29.2-67.1h0.2l15.4,40.4h-31L29.2-67.1z"/>
</g>
<line id="Baseline-L" class="st7" x1="263" y1="1556" x2="3036" y2="1556"/>
<line id="Capline-L" class="st7" x1="263" y1="1485.5" x2="3036" y2="1485.5"/>
<rect id="left-margin" x="1391.3" y="1030.8" class="st5" width="8.7" height="119.3"/>
<rect id="right-margin" x="1499.7" y="1030.8" class="st5" width="8.7" height="119.3"/>
<g id="Black-L">
	<g id="XMLID_27_">
		<g>
			<path d="M2960.3,1504.9v7h-15c-1.4,0-2.6,1.1-2.6,2.6s1.1,2.6,2.6,2.6h14.9c-1.3,13.1-12.3,23.4-25.7,23.4h-1.1
				c-13.4,0-24.5-10.3-25.7-23.4h14.3c1.4,0,2.6-1.1,2.6-2.6s-1.1-2.6-2.6-2.6h-14.4v-7h14.4c1.4,0,2.6-1.1,2.6-2.6
				s-1.1-2.6-2.6-2.6h-14.4v-7h14.4c1.4,0,2.6-1.1,2.6-2.6s-1.1-2.6-2.6-2.6h-14.4v-9.2c0-14.3,11.6-25.8,25.8-25.8h1.1
				c14.3,0,25.8,11.6,25.8,25.8v9.2h-15c-1.4,0-2.6,1.1-2.6,2.6s1.1,2.6,2.6,2.6h15v7h-15c-1.4,0-2.6,1.1-2.6,2.6s1.1,2.6,2.6,2.6
				H2960.3z M2951.5,1479.3c1.4-0.1,2.5-1.3,2.4-2.7c-0.3-5.6-2.1-9.9-5.5-12.9c-5.2-4.7-12.1-4.3-12.4-4.3
				c-1.4,0.1-2.5,1.3-2.4,2.7s1.3,2.5,2.7,2.4c0.1,0,5.1-0.2,8.7,3c2.3,2.1,3.6,5.2,3.7,9.3c0.1,1.4,1.2,2.4,2.6,2.4
				C2951.4,1479.3,2951.5,1479.3,2951.5,1479.3z"/>
			<path d="M2956.3,1578.6c0,2.4-2.2,5-6.1,7c-4.5,2.3-10.5,3.6-17,3.6c-13.6,0-23.1-5.5-23.1-10.5c0-2.4,2.2-5,6.1-7
				c3.9-2,9-3.2,14.6-3.5v8.9c0,1.4,1.1,2.6,2.6,2.6c1.4,0,2.6-1.1,2.6-2.6v-8.9C2948.1,1568.9,2956.3,1574,2956.3,1578.6z"/>
		</g>
	</g>
	<g>
		<rect x="2930.8" y="1539.3" width="5.1" height="28.9"/>
	</g>
</g>
<g id="Heavy-L">
	<g id="XMLID_26_">
		<g>
			<path d="M2664.3,1505.1v6.9h-14.8c-1.4,0-2.5,1.1-2.5,2.5c0,1.4,1.1,2.5,2.5,2.5h14.6c-1.2,12.9-12.1,23-25.4,23h-1.1
				c-13.2,0-24.1-10.1-25.4-23h14.1c1.4,0,2.5-1.1,2.5-2.5c0-1.4-1.1-2.5-2.5-2.5h-14.2v-6.9h14.2c1.4,0,2.5-1.1,2.5-2.5
				s-1.1-2.5-2.5-2.5h-14.2v-6.9h14.2c1.4,0,2.5-1.1,2.5-2.5c0-1.4-1.1-2.5-2.5-2.5h-14.2v-9c0-14,11.4-25.5,25.5-25.5h1.1
				c14,0,25.5,11.4,25.5,25.5v9h-14.8c-1.4,0-2.5,1.1-2.5,2.5c0,1.4,1.1,2.5,2.5,2.5h14.8v6.9h-14.8c-1.4,0-2.5,1.1-2.5,2.5
				s1.1,2.5,2.5,2.5H2664.3z M2655.6,1479.9c1.4-0.1,2.5-1.2,2.4-2.6c-0.2-5.5-2.1-9.8-5.4-12.8c-5.1-4.6-11.9-4.3-12.2-4.3
				c-1.4,0.1-2.4,1.3-2.4,2.7c0.1,1.4,1.3,2.5,2.7,2.4c0.1,0,5.1-0.2,8.6,3c2.3,2.1,3.5,5.1,3.7,9.2c0.1,1.4,1.2,2.4,2.5,2.4
				C2655.5,1479.9,2655.6,1479.9,2655.6,1479.9z"/>
			<path d="M2660.3,1577.8c0,2.4-2.2,4.9-6,6.9c-4.4,2.3-10.4,3.5-16.7,3.5c-13.4,0-22.8-5.5-22.8-10.4c0-2.4,2.2-4.9,6-6.9
				c3.9-2,8.9-3.2,14.3-3.4v8.8c0,1.4,1.1,2.5,2.5,2.5c1.4,0,2.5-1.1,2.5-2.5v-8.8C2652.2,1568.1,2660.3,1573.2,2660.3,1577.8z"/>
		</g>
	</g>
	<g>
		<rect x="2635.2" y="1539" width="5.1" height="28.5"/>
	</g>
</g>
<g id="Bold-L">
	<g id="XMLID_25_">
		<g>
			<path d="M2363.9,1505.3v6.8h-14.5c-1.4,0-2.5,1.1-2.5,2.5c0,1.4,1.1,2.5,2.5,2.5h14.4c-1.2,12.7-11.9,22.6-24.9,22.6h-1.1
				c-13,0-23.7-10-24.9-22.6h13.8c1.4,0,2.5-1.1,2.5-2.5c0-1.4-1.1-2.5-2.5-2.5h-14v-6.8h14c1.4,0,2.5-1.1,2.5-2.5s-1.1-2.5-2.5-2.5
				h-14v-6.8h14c1.4,0,2.5-1.1,2.5-2.5c0-1.4-1.1-2.5-2.5-2.5h-14v-8.9c0-13.8,11.2-25.1,25.1-25.1h1.1c13.8,0,25.1,11.2,25.1,25.1
				v8.9h-14.5c-1.4,0-2.5,1.1-2.5,2.5c0,1.4,1.1,2.5,2.5,2.5h14.5v6.8h-14.5c-1.4,0-2.5,1.1-2.5,2.5s1.1,2.5,2.5,2.5H2363.9z
				 M2355.4,1480.6c1.4-0.1,2.4-1.2,2.4-2.6c-0.2-5.4-2-9.6-5.3-12.5c-5-4.5-11.7-4.2-12-4.2c-1.4,0.1-2.4,1.2-2.3,2.6
				c0.1,1.4,1.2,2.4,2.6,2.3c0,0,5-0.2,8.4,2.9c2.2,2,3.4,5.1,3.6,9c0.1,1.3,1.2,2.4,2.5,2.4
				C2355.3,1480.6,2355.3,1480.6,2355.4,1480.6z"/>
			<path d="M2360,1576.8c0,2.4-2.2,4.8-5.9,6.7c-4.4,2.2-10.2,3.4-16.5,3.4c-13.2,0-22.4-5.4-22.4-10.2c0-2.4,2.2-4.8,5.9-6.8
				c3.8-1.9,8.7-3.1,14.1-3.4v8.7c0,1.4,1.1,2.5,2.5,2.5c1.4,0,2.5-1.1,2.5-2.5v-8.7C2352,1567.3,2360,1572.3,2360,1576.8z"/>
			<path d="M2357.7,1478c0.1,1.4-1,2.5-2.4,2.6c0,0-0.1,0-0.1,0c-1.3,0-2.4-1-2.5-2.4c-0.2-4-1.4-7-3.6-9c-3.5-3.1-8.4-2.9-8.4-2.9
				c-1.4,0.1-2.5-1-2.6-2.3c-0.1-1.4,1-2.5,2.3-2.6c0.3,0,7-0.4,12,4.2C2355.7,1468.4,2357.5,1472.6,2357.7,1478z"/>
		</g>
	</g>
	<g>
		<rect x="2335.3" y="1538.7" width="5" height="28"/>
	</g>
</g>
<g id="Semibold-L">
	<g id="XMLID_24_">
		<g>
			<path d="M2066.2,1505.5v6.7h-14.3c-1.4,0-2.5,1.1-2.5,2.5s1.1,2.5,2.5,2.5h14.2c-1.2,12.5-11.8,22.4-24.6,22.4h-1.1
				c-12.9,0-23.4-9.8-24.7-22.4h13.7c1.4,0,2.5-1.1,2.5-2.5s-1.1-2.5-2.5-2.5h-13.8v-6.7h13.8c1.4,0,2.5-1.1,2.5-2.5
				s-1.1-2.5-2.5-2.5h-13.8v-6.7h13.8c1.4,0,2.5-1.1,2.5-2.5c0-1.4-1.1-2.5-2.5-2.5h-13.8v-8.8c0-13.7,11.1-24.8,24.8-24.8h1.1
				c13.7,0,24.8,11.1,24.8,24.8v8.8h-14.3c-1.4,0-2.5,1.1-2.5,2.5c0,1.4,1.1,2.5,2.5,2.5h14.3v6.7h-14.3c-1.4,0-2.5,1.1-2.5,2.5
				s1.1,2.5,2.5,2.5H2066.2z M2057.8,1481c1.4-0.1,2.4-1.2,2.3-2.6c-0.2-5.3-2-9.5-5.2-12.4c-5-4.5-11.6-4.2-11.9-4.1
				c-1.4,0.1-2.4,1.2-2.3,2.6s1.2,2.4,2.6,2.3c0,0,4.9-0.2,8.3,2.9c2.2,2,3.4,5,3.6,8.9c0.1,1.3,1.2,2.3,2.5,2.3
				C2057.7,1481,2057.7,1481,2057.8,1481z"/>
			<path d="M2062.4,1576.1c0,2.3-2.1,4.8-5.9,6.7c-4.3,2.2-10.1,3.4-16.3,3.4c-13,0-22.1-5.3-22.1-10.1c0-2.3,2.1-4.8,5.9-6.7
				c3.8-1.9,8.6-3.1,13.9-3.3v8.6c0,1.4,1.1,2.5,2.5,2.5c1.4,0,2.5-1.1,2.5-2.5v-8.6C2054.5,1566.8,2062.4,1571.7,2062.4,1576.1z"/>
			<path d="M2060.1,1478.4c0.1,1.4-1,2.5-2.3,2.6c0,0-0.1,0-0.1,0c-1.3,0-2.4-1-2.5-2.3c-0.2-3.9-1.4-6.9-3.6-8.9
				c-3.4-3.1-8.3-2.9-8.3-2.9c-1.4,0.1-2.5-1-2.6-2.3s1-2.5,2.3-2.6c0.3,0,6.9-0.3,11.9,4.1
				C2058.1,1468.9,2059.9,1473.1,2060.1,1478.4z"/>
		</g>
	</g>
	<g>
		<rect x="2037.9" y="1538.4" width="4.9" height="27.7"/>
	</g>
</g>
<g id="Medium-L">
	<g id="XMLID_23_">
		<g>
			<path d="M1771.6,1505.6v6.7h-14.2c-1.3,0-2.4,1.1-2.4,2.4s1.1,2.4,2.4,2.4h14.1c-1.2,12.4-11.7,22.2-24.4,22.2h-1
				c-12.7,0-23.2-9.8-24.4-22.2h13.6c1.3,0,2.4-1.1,2.4-2.4s-1.1-2.4-2.4-2.4h-13.7v-6.7h13.7c1.3,0,2.4-1.1,2.4-2.4
				c0-1.3-1.1-2.4-2.4-2.4h-13.7v-6.7h13.7c1.3,0,2.4-1.1,2.4-2.4c0-1.3-1.1-2.4-2.4-2.4h-13.7v-8.7c0-13.5,11-24.6,24.6-24.6h1
				c13.5,0,24.6,11,24.6,24.6v8.7h-14.2c-1.3,0-2.4,1.1-2.4,2.4c0,1.3,1.1,2.4,2.4,2.4h14.2v6.7h-14.2c-1.3,0-2.4,1.1-2.4,2.4
				c0,1.3,1.1,2.4,2.4,2.4H1771.6z M1763.3,1481.3c1.3-0.1,2.4-1.2,2.3-2.5c-0.2-5.3-2-9.4-5.2-12.3c-4.9-4.4-11.5-4.1-11.8-4.1
				c-1.3,0.1-2.4,1.2-2.3,2.6s1.2,2.4,2.6,2.3c0,0,4.9-0.2,8.3,2.9c2.2,2,3.4,5,3.5,8.9c0.1,1.3,1.1,2.3,2.4,2.3
				C1763.2,1481.3,1763.2,1481.3,1763.3,1481.3z"/>
			<path d="M1767.8,1575.7c0,2.3-2.1,4.7-5.8,6.6c-4.3,2.2-10,3.4-16.1,3.4c-12.9,0-21.9-5.3-21.9-10c0-2.3,2.1-4.7,5.8-6.6
				c3.7-1.9,8.6-3.1,13.8-3.3v8.5c0,1.3,1.1,2.4,2.4,2.4c1.3,0,2.4-1.1,2.4-2.4v-8.5C1760,1566.4,1767.8,1571.3,1767.8,1575.7z"/>
			<path d="M1765.6,1478.8c0.1,1.3-1,2.5-2.3,2.5c0,0-0.1,0-0.1,0c-1.3,0-2.4-1-2.4-2.3c-0.2-3.9-1.4-6.9-3.5-8.9
				c-3.4-3.1-8.2-2.9-8.3-2.9c-1.3,0.1-2.5-1-2.6-2.3s0.9-2.5,2.3-2.6c0.3,0,6.8-0.3,11.8,4.1
				C1763.6,1469.4,1765.4,1473.5,1765.6,1478.8z"/>
		</g>
	</g>
	<g>
		<rect x="1743.6" y="1538.3" width="4.9" height="27.5"/>
	</g>
</g>
<g id="Regular-L">
	<g id="XMLID_22_">
		<g>
			<path d="M1474.1,1505.8v6.6h-14.1c-1.3,0-2.4,1.1-2.4,2.4s1.1,2.4,2.4,2.4h13.9c-1.2,12.3-11.6,21.9-24.1,21.9h-1
				c-12.6,0-23-9.6-24.1-21.9h13.4c1.3,0,2.4-1.1,2.4-2.4s-1.1-2.4-2.4-2.4h-13.5v-6.6h13.5c1.3,0,2.4-1.1,2.4-2.4
				c0-1.3-1.1-2.4-2.4-2.4h-13.5v-6.6h13.5c1.3,0,2.4-1.1,2.4-2.4s-1.1-2.4-2.4-2.4h-13.5v-8.6c0-13.4,10.9-24.3,24.3-24.3h1
				c13.4,0,24.3,10.9,24.3,24.3v8.6h-14.1c-1.3,0-2.4,1.1-2.4,2.4s1.1,2.4,2.4,2.4h14.1v6.6h-14.1c-1.3,0-2.4,1.1-2.4,2.4
				c0,1.3,1.1,2.4,2.4,2.4H1474.1z M1465.8,1481.8c1.3-0.1,2.4-1.2,2.3-2.5c-0.2-5.2-2-9.3-5.1-12.1c-4.9-4.4-11.4-4.1-11.6-4
				c-1.3,0.1-2.3,1.2-2.3,2.5c0.1,1.3,1.2,2.3,2.5,2.3c0,0,4.8-0.2,8.2,2.9c2.2,2,3.3,4.9,3.5,8.8c0.1,1.3,1.1,2.3,2.4,2.3
				C1465.8,1481.8,1465.8,1481.8,1465.8,1481.8z"/>
			<path d="M1470.3,1575c0,2.3-2.1,4.7-5.7,6.5c-4.2,2.2-9.9,3.3-15.9,3.3c-12.8,0-21.7-5.2-21.7-9.9c0-2.3,2.1-4.7,5.7-6.5
				c3.7-1.9,8.5-3,13.7-3.3v8.4c0,1.3,1.1,2.4,2.4,2.4c1.3,0,2.4-1.1,2.4-2.4v-8.4C1462.6,1565.8,1470.3,1570.6,1470.3,1575z"/>
			<path d="M1468.1,1479.3c0.1,1.3-1,2.5-2.3,2.5c0,0-0.1,0-0.1,0c-1.3,0-2.3-1-2.4-2.3c-0.2-3.9-1.4-6.8-3.5-8.8
				c-3.4-3-8.1-2.9-8.2-2.9c-1.3,0.1-2.5-0.9-2.5-2.3c-0.1-1.3,0.9-2.5,2.3-2.5c0.3,0,6.7-0.3,11.6,4
				C1466.2,1470,1467.9,1474.1,1468.1,1479.3z"/>
		</g>
	</g>
	<g>
		<rect x="1446.4" y="1538.1" width="4.8" height="27.1"/>
	</g>
</g>
<g id="Light-L">
	<g id="XMLID_21_">
		<g>
			<path d="M1177.3,1506.1v6.5h-13.8c-1.3,0-2.4,1.1-2.4,2.4s1.1,2.4,2.4,2.4h13.7c-1.2,12.1-11.3,21.5-23.7,21.5h-1
				c-12.4,0-22.6-9.5-23.7-21.5h13.2c1.3,0,2.4-1.1,2.4-2.4s-1.1-2.4-2.4-2.4h-13.3v-6.5h13.3c1.3,0,2.4-1.1,2.4-2.4
				s-1.1-2.4-2.4-2.4h-13.3v-6.5h13.3c1.3,0,2.4-1.1,2.4-2.4c0-1.3-1.1-2.4-2.4-2.4h-13.3v-8.4c0-13.1,10.7-23.8,23.8-23.8h1
				c13.1,0,23.8,10.7,23.8,23.8v8.4h-13.8c-1.3,0-2.4,1.1-2.4,2.4c0,1.3,1.1,2.4,2.4,2.4h13.8v6.5h-13.8c-1.3,0-2.4,1.1-2.4,2.4
				s1.1,2.4,2.4,2.4H1177.3z M1169.2,1482.5c1.3-0.1,2.3-1.2,2.3-2.5c-0.2-5.1-1.9-9.1-5-11.9c-4.8-4.3-11.2-4-11.4-4
				c-1.3,0.1-2.3,1.2-2.2,2.5c0.1,1.3,1.2,2.3,2.5,2.2c0,0,4.7-0.2,8,2.8c2.1,1.9,3.3,4.8,3.4,8.6c0.1,1.3,1.1,2.3,2.4,2.3
				C1169.1,1482.6,1169.2,1482.6,1169.2,1482.5z"/>
			<path d="M1173.6,1574.1c0,2.3-2.1,4.6-5.6,6.4c-4.1,2.1-9.7,3.3-15.6,3.3c-12.5,0-21.3-5.1-21.3-9.7c0-2.3,2.1-4.6,5.6-6.4
				c3.6-1.8,8.3-3,13.4-3.2v8.2c0,1.3,1.1,2.4,2.4,2.4c1.3,0,2.4-1.1,2.4-2.4v-8.2C1166,1565.1,1173.6,1569.8,1173.6,1574.1z"/>
			<path d="M1171.5,1480.1c0.1,1.3-1,2.4-2.3,2.5c0,0-0.1,0-0.1,0c-1.3,0-2.3-1-2.4-2.3c-0.2-3.8-1.3-6.7-3.4-8.6
				c-3.3-3-8-2.8-8-2.8c-1.3,0.1-2.4-0.9-2.5-2.2c-0.1-1.3,0.9-2.4,2.2-2.5c0.3,0,6.6-0.3,11.4,4
				C1169.5,1471,1171.2,1475,1171.5,1480.1z"/>
		</g>
	</g>
	<g>
		<rect x="1150.1" y="1537.8" width="4.7" height="26.6"/>
	</g>
</g>
<g id="Thin-L">
	<g id="XMLID_20_">
		<g>
			<path d="M878.4,1506.5v6.3H865c-1.3,0-2.3,1-2.3,2.3c0,1.3,1,2.3,2.3,2.3h13.3c-1.1,11.8-11.1,21-23.1,21h-1
				c-12,0-22-9.2-23.1-21h12.8c1.3,0,2.3-1,2.3-2.3c0-1.3-1-2.3-2.3-2.3H831v-6.3h12.9c1.3,0,2.3-1,2.3-2.3s-1-2.3-2.3-2.3H831v-6.3
				h12.9c1.3,0,2.3-1,2.3-2.3c0-1.3-1-2.3-2.3-2.3H831v-8.2c0-12.8,10.4-23.2,23.2-23.2h1c12.8,0,23.2,10.4,23.2,23.2v8.2H865
				c-1.3,0-2.3,1-2.3,2.3c0,1.3,1,2.3,2.3,2.3h13.5v6.3H865c-1.3,0-2.3,1-2.3,2.3s1,2.3,2.3,2.3H878.4z M870.5,1483.6
				c1.3-0.1,2.3-1.1,2.2-2.4c-0.2-5-1.9-8.9-4.9-11.6c-4.7-4.2-10.9-3.9-11.1-3.9c-1.3,0.1-2.2,1.2-2.2,2.4c0.1,1.3,1.1,2.2,2.4,2.2
				c0,0,4.6-0.2,7.8,2.7c2.1,1.9,3.2,4.7,3.4,8.4c0.1,1.2,1.1,2.2,2.3,2.2C870.4,1483.6,870.5,1483.6,870.5,1483.6z"/>
			<path d="M874.8,1572.8c0,2.2-2,4.5-5.5,6.3c-4,2.1-9.5,3.2-15.3,3.2c-12.2,0-20.7-5-20.7-9.4c0-2.2,2-4.5,5.5-6.3
				c3.5-1.8,8.1-2.9,13.1-3.1v8c0,1.3,1,2.3,2.3,2.3c1.3,0,2.3-1,2.3-2.3v-8C867.4,1564,874.8,1568.6,874.8,1572.8z"/>
			<path d="M872.7,1481.2c0.1,1.3-0.9,2.4-2.2,2.4c0,0-0.1,0-0.1,0c-1.2,0-2.2-1-2.3-2.2c-0.2-3.7-1.3-6.5-3.4-8.4
				c-3.2-2.9-7.8-2.7-7.8-2.7c-1.3,0.1-2.4-0.9-2.4-2.2c-0.1-1.3,0.9-2.4,2.2-2.4c0.3,0,6.5-0.3,11.1,3.9
				C870.8,1472.3,872.5,1476.2,872.7,1481.2z"/>
		</g>
	</g>
	<g>
		<rect x="851.9" y="1537.4" width="4.6" height="26"/>
	</g>
</g>
<g id="Ultralight-L">
	<g id="XMLID_19_">
		<g>
			<path d="M584.2,1506.8v6.2h-13.3c-1.3,0-2.3,1-2.3,2.3s1,2.3,2.3,2.3h13.2c-1.1,11.6-10.9,20.7-22.8,20.7h-1
				c-11.9,0-21.7-9.1-22.8-20.7h12.6c1.3,0,2.3-1,2.3-2.3s-1-2.3-2.3-2.3h-12.8v-6.2h12.8c1.3,0,2.3-1,2.3-2.3c0-1.3-1-2.3-2.3-2.3
				h-12.8v-6.2h12.8c1.3,0,2.3-1,2.3-2.3s-1-2.3-2.3-2.3h-12.8v-8.1c0-12.6,10.3-22.9,22.9-22.9h1c12.6,0,22.9,10.3,22.9,22.9v8.1
				h-13.3c-1.3,0-2.3,1-2.3,2.3s1,2.3,2.3,2.3h13.3v6.2h-13.3c-1.3,0-2.3,1-2.3,2.3c0,1.3,1,2.3,2.3,2.3H584.2z M576.4,1484.1
				c1.3-0.1,2.2-1.1,2.2-2.4c-0.2-4.9-1.9-8.8-4.8-11.5c-4.6-4.1-10.7-3.8-11-3.8c-1.3,0.1-2.2,1.1-2.1,2.4c0.1,1.3,1.1,2.2,2.4,2.1
				c0,0,4.5-0.2,7.7,2.7c2,1.8,3.1,4.6,3.3,8.3c0.1,1.2,1.1,2.2,2.3,2.2C576.3,1484.1,576.4,1484.1,576.4,1484.1z"/>
			<path d="M580.6,1572.1c0,2.2-2,4.4-5.4,6.2c-4,2-9.3,3.2-15,3.2c-12.1,0-20.5-4.9-20.5-9.3c0-2.2,2-4.4,5.4-6.2
				c3.5-1.8,8-2.9,12.9-3.1v7.9c0,1.3,1,2.3,2.3,2.3c1.3,0,2.3-1,2.3-2.3v-7.9C573.3,1563.5,580.6,1568,580.6,1572.1z"/>
			<path d="M578.6,1481.8c0.1,1.3-0.9,2.3-2.2,2.4c0,0-0.1,0-0.1,0c-1.2,0-2.2-1-2.3-2.2c-0.2-3.6-1.3-6.4-3.3-8.3
				c-3.2-2.9-7.7-2.7-7.7-2.7c-1.3,0.1-2.3-0.9-2.4-2.1c-0.1-1.3,0.9-2.3,2.1-2.4c0.3,0,6.4-0.3,11,3.8
				C576.7,1473,578.3,1476.8,578.6,1481.8z"/>
		</g>
	</g>
	<g>
		<rect x="558" y="1537.3" width="4.5" height="25.6"/>
	</g>
</g>
<g id="Black-M">
	<g id="XMLID_18_">
		<g>
			<path d="M2955.4,1078.3v5.5h-11.8c-1.1,0-2,0.9-2,2c0,1.1,0.9,2,2,2h11.7c-1,10.3-9.7,18.4-20.2,18.4h-0.9
				c-10.5,0-19.2-8.1-20.2-18.4h11.2c1.1,0,2-0.9,2-2c0-1.1-0.9-2-2-2h-11.3v-5.5h11.3c1.1,0,2-0.9,2-2c0-1.1-0.9-2-2-2h-11.3v-5.5
				h11.3c1.1,0,2-0.9,2-2c0-1.1-0.9-2-2-2h-11.3v-7.2c0-11.2,9.1-20.3,20.3-20.3h0.9c11.2,0,20.3,9.1,20.3,20.3v7.2h-11.8
				c-1.1,0-2,0.9-2,2c0,1.1,0.9,2,2,2h11.8v5.5h-11.8c-1.1,0-2,0.9-2,2c0,1.1,0.9,2,2,2H2955.4z M2948.5,1058.2c1.1,0,2-1,1.9-2.1
				c-0.2-4.4-1.6-7.8-4.3-10.2c-4.1-3.7-9.5-3.4-9.7-3.4c-1.1,0.1-2,1-1.9,2.1c0.1,1.1,1,2,2.1,1.9c0,0,4-0.2,6.8,2.4
				c1.8,1.6,2.8,4.1,2.9,7.3C2946.5,1057.4,2947.3,1058.2,2948.5,1058.2C2948.4,1058.2,2948.5,1058.2,2948.5,1058.2z"/>
			<path d="M2952.3,1136.3c0,1.9-1.8,3.9-4.8,5.5c-3.5,1.8-8.3,2.8-13.3,2.8c-10.7,0-18.2-4.4-18.2-8.3c0-1.9,1.8-3.9,4.8-5.5
				c3.1-1.6,7.1-2.5,11.4-2.7v7c0,1.1,0.9,2,2,2c1.1,0,2-0.9,2-2v-7C2945.8,1128.6,2952.3,1132.6,2952.3,1136.3z"/>
			<path class="st0" d="M2950.4,1056.1c0.1,1.1-0.8,2.1-1.9,2.1c0,0-0.1,0-0.1,0c-1.1,0-2-0.8-2-1.9c-0.1-3.2-1.1-5.7-2.9-7.3
				c-2.8-2.6-6.8-2.4-6.8-2.4c-1.1,0.1-2.1-0.8-2.1-1.9c-0.1-1.1,0.8-2.1,1.9-2.1c0.2,0,5.7-0.3,9.7,3.4
				C2948.8,1048.3,2950.2,1051.7,2950.4,1056.1z"/>
		</g>
	</g>
	<g>
		<rect x="2932.2" y="1105.3" width="4" height="22.7"/>
	</g>
</g>
<g id="Heavy-M">
	<g id="XMLID_17_">
		<g>
			<path d="M2657.1,1078.4v5.4h-11.6c-1.1,0-2,0.9-2,2s0.9,2,2,2h11.5c-1,10.1-9.5,18.1-19.9,18.1h-0.9c-10.4,0-19-8-19.9-18.1h11.1
				c1.1,0,2-0.9,2-2s-0.9-2-2-2h-11.2v-5.4h11.2c1.1,0,2-0.9,2-2s-0.9-2-2-2h-11.2v-5.4h11.2c1.1,0,2-0.9,2-2s-0.9-2-2-2h-11.2v-7.1
				c0-11,9-20,20-20h0.9c11,0,20,9,20,20v7.1h-11.6c-1.1,0-2,0.9-2,2s0.9,2,2,2h11.6v5.4h-11.6c-1.1,0-2,0.9-2,2s0.9,2,2,2H2657.1z
				 M2650.3,1058.6c1.1,0,1.9-1,1.9-2.1c-0.2-4.3-1.6-7.7-4.2-10c-4-3.6-9.4-3.4-9.6-3.3c-1.1,0.1-1.9,1-1.9,2.1
				c0.1,1.1,1,1.9,2.1,1.9c0,0,4-0.2,6.7,2.4c1.8,1.6,2.8,4,2.9,7.2C2648.3,1057.8,2649.2,1058.6,2650.3,1058.6
				C2650.3,1058.6,2650.3,1058.6,2650.3,1058.6z"/>
			<path d="M2654,1135.6c0,1.9-1.7,3.9-4.7,5.4c-3.5,1.8-8.2,2.8-13.2,2.8c-10.5,0-17.9-4.3-17.9-8.2c0-1.9,1.7-3.9,4.7-5.4
				c3-1.6,7-2.5,11.3-2.7v6.9c0,1.1,0.9,2,2,2c1.1,0,2-0.9,2-2v-6.9C2647.7,1128,2654,1132,2654,1135.6z"/>
			<path class="st0" d="M2652.2,1056.6c0.1,1.1-0.8,2-1.9,2.1c0,0-0.1,0-0.1,0c-1.1,0-1.9-0.8-2-1.9c-0.1-3.2-1.1-5.6-2.9-7.2
				c-2.8-2.5-6.7-2.4-6.7-2.4c-1.1,0.1-2-0.8-2.1-1.9c-0.1-1.1,0.8-2,1.9-2.1c0.2,0,5.6-0.3,9.6,3.3
				C2650.6,1048.9,2652,1052.3,2652.2,1056.6z"/>
		</g>
	</g>
	<g>
		<rect x="2634.3" y="1105.1" width="4" height="22.4"/>
	</g>
</g>
<g id="Bold-M">
	<g id="XMLID_16_">
		<g>
			<path d="M2360.1,1078.6v5.4h-11.4c-1.1,0-2,0.9-2,2c0,1.1,0.9,2,2,2h11.3c-1,10-9.4,17.8-19.6,17.8h-0.8
				c-10.2,0-18.6-7.8-19.6-17.8h10.9c1.1,0,2-0.9,2-2c0-1.1-0.9-2-2-2h-11v-5.4h11c1.1,0,2-0.9,2-2c0-1.1-0.9-2-2-2h-11v-5.4h11
				c1.1,0,2-0.9,2-2c0-1.1-0.9-2-2-2h-11v-7c0-10.9,8.8-19.7,19.7-19.7h0.8c10.9,0,19.7,8.8,19.7,19.7v7h-11.4c-1.1,0-2,0.9-2,2
				c0,1.1,0.9,2,2,2h11.4v5.4h-11.4c-1.1,0-2,0.9-2,2c0,1.1,0.9,2,2,2H2360.1z M2353.4,1059.2c1.1,0,1.9-1,1.9-2
				c-0.2-4.2-1.6-7.5-4.2-9.9c-4-3.6-9.2-3.3-9.4-3.3c-1.1,0.1-1.9,1-1.8,2.1c0.1,1.1,1,1.9,2.1,1.8c0,0,3.9-0.2,6.6,2.3
				c1.7,1.6,2.7,4,2.8,7.1C2351.4,1058.4,2352.3,1059.2,2353.4,1059.2C2353.3,1059.2,2353.4,1059.2,2353.4,1059.2z"/>
			<path d="M2357,1134.8c0,1.9-1.7,3.8-4.7,5.3c-3.4,1.7-8,2.7-12.9,2.7c-10.4,0-17.6-4.2-17.6-8c0-1.9,1.7-3.8,4.7-5.3
				c3-1.5,6.9-2.5,11.1-2.7v6.8c0,1.1,0.9,2,2,2c1.1,0,2-0.9,2-2v-6.8C2350.8,1127.4,2357,1131.3,2357,1134.8z"/>
			<path class="st0" d="M2355.2,1057.1c0.1,1.1-0.8,2-1.9,2c0,0-0.1,0-0.1,0c-1,0-1.9-0.8-2-1.9c-0.1-3.1-1.1-5.5-2.8-7.1
				c-2.7-2.5-6.6-2.3-6.6-2.3c-1.1,0.1-2-0.8-2.1-1.8c-0.1-1.1,0.8-2,1.8-2.1c0.2,0,5.5-0.3,9.4,3.3
				C2353.7,1049.6,2355.1,1052.9,2355.2,1057.1z"/>
		</g>
	</g>
	<g>
		<rect x="2337.6" y="1104.8" width="3.9" height="22"/>
	</g>
</g>
<g id="Semibold-M">
	<g id="XMLID_15_">
		<g>
			<path d="M2063.2,1078.7v5.3h-11.3c-1.1,0-1.9,0.9-1.9,1.9s0.9,1.9,1.9,1.9h11.2c-0.9,9.9-9.3,17.6-19.4,17.6h-0.8
				c-10.1,0-18.4-7.7-19.4-17.6h10.8c1.1,0,1.9-0.9,1.9-1.9s-0.9-1.9-1.9-1.9h-10.8v-5.3h10.8c1.1,0,1.9-0.9,1.9-1.9
				s-0.9-1.9-1.9-1.9h-10.8v-5.3h10.8c1.1,0,1.9-0.9,1.9-1.9s-0.9-1.9-1.9-1.9h-10.8v-6.9c0-10.7,8.7-19.5,19.5-19.5h0.8
				c10.7,0,19.5,8.7,19.5,19.5v6.9h-11.3c-1.1,0-1.9,0.9-1.9,1.9s0.9,1.9,1.9,1.9h11.3v5.3h-11.3c-1.1,0-1.9,0.9-1.9,1.9
				s0.9,1.9,1.9,1.9H2063.2z M2056.5,1059.5c1.1,0,1.9-1,1.8-2c-0.2-4.2-1.6-7.5-4.1-9.7c-3.9-3.5-9.1-3.3-9.3-3.3
				c-1.1,0.1-1.9,1-1.8,2c0.1,1.1,1,1.9,2,1.8c0,0,3.9-0.2,6.6,2.3c1.7,1.6,2.7,3.9,2.8,7
				C2054.6,1058.7,2055.4,1059.5,2056.5,1059.5C2056.5,1059.5,2056.5,1059.5,2056.5,1059.5z"/>
			<path d="M2060.1,1134.3c0,1.8-1.7,3.8-4.6,5.2c-3.4,1.7-7.9,2.7-12.8,2.7c-10.3,0-17.4-4.2-17.4-7.9c0-1.8,1.7-3.8,4.6-5.2
				c3-1.5,6.8-2.4,11-2.6v6.7c0,1.1,0.9,1.9,1.9,1.9c1.1,0,1.9-0.9,1.9-1.9v-6.7C2053.9,1126.9,2060.1,1130.8,2060.1,1134.3z"/>
			<path class="st0" d="M2058.4,1057.5c0.1,1.1-0.8,2-1.8,2c0,0-0.1,0-0.1,0c-1,0-1.9-0.8-1.9-1.8c-0.1-3.1-1.1-5.5-2.8-7
				c-2.7-2.4-6.5-2.3-6.6-2.3c-1.1,0.1-2-0.8-2-1.8c-0.1-1.1,0.8-2,1.8-2c0.2,0,5.4-0.3,9.3,3.3
				C2056.8,1050,2058.2,1053.3,2058.4,1057.5z"/>
		</g>
	</g>
	<g>
		<rect x="2040.9" y="1104.7" width="3.9" height="21.8"/>
	</g>
</g>
<g id="Medium-M">
	<g id="XMLID_14_">
		<g>
			<path d="M1766.3,1078.8v5.2h-11.2c-1.1,0-1.9,0.9-1.9,1.9c0,1.1,0.9,1.9,1.9,1.9h11.1c-0.9,9.8-9.2,17.4-19.2,17.4h-0.8
				c-10,0-18.3-7.7-19.2-17.4h10.7c1.1,0,1.9-0.9,1.9-1.9c0-1.1-0.9-1.9-1.9-1.9h-10.8v-5.2h10.8c1.1,0,1.9-0.9,1.9-1.9
				c0-1.1-0.9-1.9-1.9-1.9h-10.8v-5.2h10.8c1.1,0,1.9-0.9,1.9-1.9c0-1.1-0.9-1.9-1.9-1.9h-10.8v-6.8c0-10.6,8.7-19.3,19.3-19.3h0.8
				c10.6,0,19.3,8.7,19.3,19.3v6.8h-11.2c-1.1,0-1.9,0.9-1.9,1.9c0,1.1,0.9,1.9,1.9,1.9h11.2v5.2h-11.2c-1.1,0-1.9,0.9-1.9,1.9
				c0,1.1,0.9,1.9,1.9,1.9H1766.3z M1759.7,1059.8c1.1,0,1.9-0.9,1.8-2c-0.2-4.1-1.6-7.4-4.1-9.7c-3.9-3.5-9-3.2-9.3-3.2
				c-1.1,0.1-1.9,1-1.8,2s1,1.9,2,1.8c0,0,3.8-0.2,6.5,2.3c1.7,1.6,2.7,3.9,2.8,7C1757.7,1059,1758.6,1059.8,1759.7,1059.8
				C1759.6,1059.8,1759.7,1059.8,1759.7,1059.8z"/>
			<path d="M1763.3,1133.9c0,1.8-1.7,3.7-4.6,5.2c-3.4,1.7-7.9,2.7-12.7,2.7c-10.2,0-17.2-4.1-17.2-7.9c0-1.8,1.7-3.7,4.6-5.2
				c2.9-1.5,6.7-2.4,10.9-2.6v6.7c0,1.1,0.9,1.9,1.9,1.9c1.1,0,1.9-0.9,1.9-1.9v-6.7C1757.1,1126.6,1763.3,1130.5,1763.3,1133.9z"/>
			<path class="st0" d="M1761.5,1057.8c0,1.1-0.8,2-1.8,2c0,0-0.1,0-0.1,0c-1,0-1.9-0.8-1.9-1.8c-0.1-3.1-1.1-5.4-2.8-7
				c-2.7-2.4-6.5-2.3-6.5-2.3c-1.1,0.1-2-0.8-2-1.8s0.7-2,1.8-2c0.2,0,5.4-0.3,9.3,3.2C1760,1050.4,1761.3,1053.6,1761.5,1057.8z"/>
		</g>
	</g>
	<g>
		<rect x="1744.2" y="1104.5" width="3.8" height="21.6"/>
	</g>
</g>
<g id="Regular-M">
	<g id="XMLID_13_">
		<g>
			<path d="M1469.3,1079v5.2h-11c-1,0-1.9,0.8-1.9,1.9c0,1,0.8,1.9,1.9,1.9h11c-0.9,9.7-9.1,17.2-19,17.2h-0.8
				c-9.9,0-18.1-7.6-19-17.2h10.5c1,0,1.9-0.8,1.9-1.9c0-1-0.8-1.9-1.9-1.9h-10.6v-5.2h10.6c1,0,1.9-0.8,1.9-1.9
				c0-1-0.8-1.9-1.9-1.9h-10.6v-5.2h10.6c1,0,1.9-0.8,1.9-1.9c0-1-0.8-1.9-1.9-1.9h-10.6v-6.8c0-10.5,8.6-19.1,19.1-19.1h0.8
				c10.5,0,19.1,8.6,19.1,19.1v6.8h-11c-1,0-1.9,0.8-1.9,1.9c0,1,0.8,1.9,1.9,1.9h11v5.2h-11c-1,0-1.9,0.8-1.9,1.9
				c0,1,0.8,1.9,1.9,1.9H1469.3z M1462.8,1060.1c1,0,1.9-0.9,1.8-2c-0.2-4.1-1.5-7.3-4-9.5c-3.8-3.5-8.9-3.2-9.1-3.2
				c-1,0.1-1.8,1-1.8,2c0.1,1,0.9,1.8,2,1.8c0,0,3.8-0.2,6.4,2.2c1.7,1.5,2.6,3.9,2.8,6.9
				C1460.9,1059.4,1461.7,1060.1,1462.8,1060.1C1462.8,1060.1,1462.8,1060.1,1462.8,1060.1z"/>
			<path d="M1466.4,1133.4c0,1.8-1.6,3.7-4.5,5.1c-3.3,1.7-7.8,2.6-12.5,2.6c-10,0-17-4.1-17-7.8c0-1.8,1.6-3.7,4.5-5.1
				c2.9-1.5,6.7-2.4,10.7-2.6v6.6c0,1,0.8,1.9,1.9,1.9c1,0,1.9-0.8,1.9-1.9v-6.6C1460.3,1126.2,1466.4,1130,1466.4,1133.4z"/>
			<path class="st0" d="M1464.6,1058.2c0,1-0.8,1.9-1.8,2c0,0-0.1,0-0.1,0c-1,0-1.8-0.8-1.9-1.8c-0.1-3-1.1-5.3-2.8-6.9
				c-2.6-2.4-6.4-2.2-6.4-2.2c-1,0.1-1.9-0.7-2-1.8c-0.1-1,0.7-1.9,1.8-2c0.2,0,5.3-0.3,9.1,3.2
				C1463.1,1050.9,1464.4,1054.1,1464.6,1058.2z"/>
		</g>
	</g>
	<g>
		<rect x="1447.5" y="1104.4" width="3.8" height="21.3"/>
	</g>
</g>
<g id="Light-M">
	<g id="XMLID_12_">
		<g>
			<path d="M1172.3,1079.2v5.1h-10.8c-1,0-1.9,0.8-1.9,1.9c0,1,0.8,1.9,1.9,1.9h10.8c-0.9,9.5-8.9,16.9-18.6,16.9h-0.8
				c-9.7,0-17.7-7.4-18.6-16.9h10.3c1,0,1.9-0.8,1.9-1.9c0-1-0.8-1.9-1.9-1.9H1134v-5.1h10.4c1,0,1.9-0.8,1.9-1.9
				c0-1-0.8-1.9-1.9-1.9H1134v-5.1h10.4c1,0,1.9-0.8,1.9-1.9c0-1-0.8-1.9-1.9-1.9H1134v-6.6c0-10.3,8.4-18.7,18.7-18.7h0.8
				c10.3,0,18.7,8.4,18.7,18.7v6.6h-10.8c-1,0-1.9,0.8-1.9,1.9c0,1,0.8,1.9,1.9,1.9h10.8v5.1h-10.8c-1,0-1.9,0.8-1.9,1.9
				c0,1,0.8,1.9,1.9,1.9H1172.3z M1165.9,1060.7c1,0,1.8-0.9,1.8-1.9c-0.2-4-1.5-7.2-4-9.4c-3.8-3.4-8.8-3.1-9-3.1
				c-1,0.1-1.8,0.9-1.7,2s0.9,1.8,2,1.8c0,0,3.7-0.2,6.3,2.2c1.7,1.5,2.6,3.8,2.7,6.8C1164,1060,1164.8,1060.7,1165.9,1060.7
				C1165.8,1060.7,1165.9,1060.7,1165.9,1060.7z"/>
			<path d="M1169.4,1132.7c0,1.8-1.6,3.6-4.4,5c-3.3,1.7-7.6,2.6-12.3,2.6c-9.9,0-16.7-4-16.7-7.6c0-1.8,1.6-3.6,4.4-5
				c2.8-1.4,6.5-2.3,10.5-2.5v6.5c0,1,0.8,1.9,1.9,1.9c1,0,1.9-0.8,1.9-1.9v-6.5C1163.4,1125.6,1169.4,1129.3,1169.4,1132.7z"/>
			<path class="st0" d="M1167.7,1058.8c0,1-0.7,1.9-1.8,1.9c0,0-0.1,0-0.1,0c-1,0-1.8-0.8-1.9-1.8c-0.1-3-1-5.3-2.7-6.8
				c-2.6-2.4-6.3-2.2-6.3-2.2c-1,0.1-1.9-0.7-2-1.8s0.7-1.9,1.7-2c0.2,0,5.2-0.3,9,3.1C1166.1,1051.6,1167.5,1054.8,1167.7,1058.8z"
				/>
		</g>
	</g>
	<g>
		<rect x="1150.9" y="1104.2" width="3.7" height="20.9"/>
	</g>
</g>
<g id="Thin-M">
	<g id="XMLID_11_">
		<g>
			<path d="M875.1,1079.6v5h-10.6c-1,0-1.8,0.8-1.8,1.8c0,1,0.8,1.8,1.8,1.8H875c-0.9,9.2-8.7,16.5-18.2,16.5H856
				c-9.5,0-17.3-7.3-18.2-16.5h10.1c1,0,1.8-0.8,1.8-1.8c0-1-0.8-1.8-1.8-1.8h-10.2v-5h10.2c1,0,1.8-0.8,1.8-1.8
				c0-1-0.8-1.8-1.8-1.8h-10.2v-5h10.2c1,0,1.8-0.8,1.8-1.8c0-1-0.8-1.8-1.8-1.8h-10.2v-6.5c0-10.1,8.2-18.3,18.3-18.3h0.8
				c10.1,0,18.3,8.2,18.3,18.3v6.5h-10.6c-1,0-1.8,0.8-1.8,1.8c0,1,0.8,1.8,1.8,1.8h10.6v5h-10.6c-1,0-1.8,0.8-1.8,1.8
				c0,1,0.8,1.8,1.8,1.8H875.1z M868.9,1061.5c1,0,1.8-0.9,1.7-1.9c-0.2-3.9-1.5-7-3.9-9.1c-3.7-3.3-8.5-3.1-8.7-3
				c-1,0.1-1.8,0.9-1.7,1.9c0.1,1,0.9,1.8,1.9,1.7c0,0,3.6-0.1,6.1,2.1c1.6,1.5,2.5,3.7,2.6,6.6
				C867,1060.8,867.8,1061.6,868.9,1061.5C868.8,1061.6,868.8,1061.6,868.9,1061.5z"/>
			<path d="M872.2,1131.7c0,1.7-1.6,3.5-4.3,4.9c-3.2,1.6-7.4,2.5-12,2.5c-9.6,0-16.3-3.9-16.3-7.4c0-1.7,1.6-3.5,4.3-4.9
				c2.8-1.4,6.4-2.3,10.3-2.5v6.3c0,1,0.8,1.8,1.8,1.8c1,0,1.8-0.8,1.8-1.8v-6.3C866.4,1124.8,872.2,1128.4,872.2,1131.7z"/>
			<path class="st0" d="M870.6,1059.7c0,1-0.7,1.8-1.7,1.9c0,0-0.1,0-0.1,0c-1,0-1.8-0.8-1.8-1.7c-0.1-2.9-1-5.1-2.6-6.6
				c-2.5-2.3-6.1-2.1-6.1-2.1c-1,0.1-1.8-0.7-1.9-1.7c-0.1-1,0.7-1.8,1.7-1.9c0.2,0,5.1-0.3,8.7,3
				C869.1,1052.7,870.4,1055.7,870.6,1059.7z"/>
		</g>
	</g>
	<g>
		<rect x="854.2" y="1103.9" width="3.6" height="20.4"/>
	</g>
</g>
<g id="Ultralight-M">
	<g id="XMLID_10_">
		<g>
			<path d="M578.1,1079.8v4.9h-10.4c-1,0-1.8,0.8-1.8,1.8s0.8,1.8,1.8,1.8H578c-0.9,9.1-8.6,16.3-17.9,16.3h-0.8
				c-9.3,0-17-7.2-17.9-16.3h9.9c1,0,1.8-0.8,1.8-1.8s-0.8-1.8-1.8-1.8h-10v-4.9h10c1,0,1.8-0.8,1.8-1.8c0-1-0.8-1.8-1.8-1.8h-10
				v-4.9h10c1,0,1.8-0.8,1.8-1.8c0-1-0.8-1.8-1.8-1.8h-10v-6.4c0-9.9,8.1-18,18-18h0.8c9.9,0,18,8.1,18,18v6.4h-10.4
				c-1,0-1.8,0.8-1.8,1.8c0,1,0.8,1.8,1.8,1.8h10.4v4.9h-10.4c-1,0-1.8,0.8-1.8,1.8c0,1,0.8,1.8,1.8,1.8H578.1z M572,1062
				c1,0,1.7-0.9,1.7-1.9c-0.2-3.9-1.5-6.9-3.8-9c-3.6-3.3-8.4-3-8.6-3c-1,0.1-1.7,0.9-1.7,1.9c0.1,1,0.9,1.7,1.9,1.7
				c0,0,3.6-0.1,6.1,2.1c1.6,1.5,2.5,3.6,2.6,6.5C570.2,1061.2,570.9,1062,572,1062C571.9,1062,571.9,1062,572,1062z"/>
			<path d="M575.3,1131.2c0,1.7-1.6,3.5-4.3,4.9c-3.1,1.6-7.3,2.5-11.8,2.5c-9.5,0-16.1-3.9-16.1-7.3c0-1.7,1.6-3.5,4.3-4.9
				c2.7-1.4,6.3-2.2,10.1-2.4v6.2c0,1,0.8,1.8,1.8,1.8c1,0,1.8-0.8,1.8-1.8v-6.2C569.6,1124.3,575.3,1127.9,575.3,1131.2z"/>
			<path class="st0" d="M573.7,1060.1c0,1-0.7,1.8-1.7,1.9c0,0-0.1,0-0.1,0c-0.9,0-1.7-0.7-1.8-1.7c-0.1-2.9-1-5.1-2.6-6.5
				c-2.5-2.3-6-2.1-6.1-2.1c-1,0.1-1.8-0.7-1.9-1.7c-0.1-1,0.7-1.8,1.7-1.9c0.2,0,5-0.3,8.6,3
				C572.2,1053.2,573.5,1056.2,573.7,1060.1z"/>
		</g>
	</g>
	<g>
		<rect x="557.5" y="1103.7" width="3.6" height="20.1"/>
	</g>
</g>
<g id="Black-S">
	<g id="XMLID_9_">
		<g>
			<path d="M2949.9,651v4.3h-9.2c-0.9,0-1.6,0.7-1.6,1.6c0,0.9,0.7,1.6,1.6,1.6h9.1c-0.8,8-7.6,14.4-15.8,14.4h-0.7
				c-8.2,0-15-6.3-15.8-14.4h8.8c0.9,0,1.6-0.7,1.6-1.6c0-0.9-0.7-1.6-1.6-1.6h-8.9V651h8.9c0.9,0,1.6-0.7,1.6-1.6s-0.7-1.6-1.6-1.6
				h-8.9v-4.3h8.9c0.9,0,1.6-0.7,1.6-1.6s-0.7-1.6-1.6-1.6h-8.9v-5.6c0-8.8,7.1-15.9,15.9-15.9h0.7c8.8,0,15.9,7.1,15.9,15.9v5.6
				h-9.2c-0.9,0-1.6,0.7-1.6,1.6s0.7,1.6,1.6,1.6h9.2v4.3h-9.2c-0.9,0-1.6,0.7-1.6,1.6s0.7,1.6,1.6,1.6H2949.9z M2944.5,635.3
				c0.9,0,1.5-0.8,1.5-1.6c-0.2-3.4-1.3-6.1-3.4-8c-3.2-2.9-7.4-2.7-7.6-2.7c-0.9,0.1-1.5,0.8-1.5,1.7c0,0.9,0.8,1.5,1.7,1.5
				c0,0,3.2-0.1,5.3,1.9c1.4,1.3,2.2,3.2,2.3,5.7C2942.8,634.6,2943.5,635.3,2944.5,635.3C2944.4,635.3,2944.4,635.3,2944.5,635.3z"
				/>
			<path d="M2947.4,696.4c0,1.5-1.4,3.1-3.8,4.3c-2.8,1.4-6.5,2.2-10.4,2.2c-8.4,0-14.2-3.4-14.2-6.5c0-1.5,1.4-3.1,3.8-4.3
				c2.4-1.2,5.6-2,9-2.1v5.5c0,0.9,0.7,1.6,1.6,1.6c0.9,0,1.6-0.7,1.6-1.6v-5.5C2942.3,690.4,2947.4,693.5,2947.4,696.4z"/>
			<path class="st0" d="M2946,633.7c0,0.9-0.6,1.6-1.5,1.6c0,0-0.1,0-0.1,0c-0.8,0-1.5-0.7-1.6-1.5c-0.1-2.5-0.9-4.5-2.3-5.7
				c-2.2-2-5.3-1.9-5.3-1.9c-0.9,0-1.6-0.6-1.7-1.5c0-0.9,0.6-1.6,1.5-1.7c0.2,0,4.4-0.2,7.6,2.7
				C2944.7,627.6,2945.8,630.2,2946,633.7z"/>
		</g>
	</g>
	<g>
		<rect x="2931.7" y="672.2" width="3.2" height="17.8"/>
	</g>
</g>
<g id="Heavy-S_2_">
	<g id="XMLID_8_">
		<g>
			<path d="M2652.9,651.1v4.3h-9.1c-0.9,0-1.6,0.7-1.6,1.6c0,0.9,0.7,1.6,1.6,1.6h9c-0.8,7.9-7.5,14.2-15.6,14.2h-0.7
				c-8.1,0-14.8-6.2-15.6-14.2h8.7c0.9,0,1.6-0.7,1.6-1.6c0-0.9-0.7-1.6-1.6-1.6h-8.7v-4.3h8.7c0.9,0,1.6-0.7,1.6-1.6
				s-0.7-1.6-1.6-1.6h-8.7v-4.3h8.7c0.9,0,1.6-0.7,1.6-1.6c0-0.9-0.7-1.6-1.6-1.6h-8.7v-5.6c0-8.6,7-15.7,15.7-15.7h0.7
				c8.6,0,15.7,7,15.7,15.7v5.6h-9.1c-0.9,0-1.6,0.7-1.6,1.6c0,0.9,0.7,1.6,1.6,1.6h9.1v4.3h-9.1c-0.9,0-1.6,0.7-1.6,1.6
				s0.7,1.6,1.6,1.6H2652.9z M2647.6,635.6c0.9,0,1.5-0.8,1.5-1.6c-0.2-3.4-1.3-6-3.3-7.8c-3.2-2.8-7.3-2.6-7.5-2.6
				c-0.9,0-1.5,0.8-1.5,1.6s0.8,1.5,1.6,1.5c0,0,3.1-0.1,5.3,1.8c1.4,1.3,2.2,3.2,2.3,5.7C2646,635,2646.7,635.7,2647.6,635.6
				C2647.6,635.7,2647.6,635.7,2647.6,635.6z"/>
			<path d="M2650.5,695.8c0,1.5-1.3,3-3.7,4.2c-2.7,1.4-6.4,2.2-10.3,2.2c-8.2,0-14-3.4-14-6.4c0-1.5,1.4-3,3.7-4.2
				c2.4-1.2,5.5-1.9,8.8-2.1v5.4c0,0.9,0.7,1.6,1.6,1.6c0.9,0,1.6-0.7,1.6-1.6v-5.4C2645.5,689.9,2650.5,693,2650.5,695.8z"/>
			<path class="st0" d="M2649.1,634c0,0.9-0.6,1.6-1.5,1.6c0,0,0,0-0.1,0c-0.8,0-1.5-0.6-1.6-1.5c-0.1-2.5-0.9-4.4-2.3-5.7
				c-2.2-2-5.2-1.8-5.3-1.8c-0.9,0-1.6-0.6-1.6-1.5s0.6-1.6,1.5-1.6c0.2,0,4.4-0.2,7.5,2.6C2647.8,628,2648.9,630.7,2649.1,634z"/>
		</g>
	</g>
	<g>
		<rect x="2635.1" y="672" width="3.1" height="17.5"/>
	</g>
</g>
<g id="Bold-S">
	<g id="XMLID_7_">
		<g>
			<path d="M2355.9,651.3v4.2h-8.9c-0.8,0-1.5,0.7-1.5,1.5c0,0.8,0.7,1.5,1.5,1.5h8.9c-0.7,7.8-7.3,13.9-15.3,13.9h-0.7
				c-8,0-14.6-6.1-15.3-13.9h8.5c0.8,0,1.5-0.7,1.5-1.5c0-0.8-0.7-1.5-1.5-1.5h-8.6v-4.2h8.6c0.8,0,1.5-0.7,1.5-1.5
				c0-0.8-0.7-1.5-1.5-1.5h-8.6V644h8.6c0.8,0,1.5-0.7,1.5-1.5c0-0.8-0.7-1.5-1.5-1.5h-8.6v-5.5c0-8.5,6.9-15.4,15.4-15.4h0.7
				c8.5,0,15.4,6.9,15.4,15.4v5.5h-8.9c-0.8,0-1.5,0.7-1.5,1.5c0,0.8,0.7,1.5,1.5,1.5h8.9v4.2h-8.9c-0.8,0-1.5,0.7-1.5,1.5
				c0,0.8,0.7,1.5,1.5,1.5H2355.9z M2350.6,636.1c0.8,0,1.5-0.8,1.5-1.6c-0.1-3.3-1.2-5.9-3.3-7.7c-3.1-2.8-7.2-2.6-7.4-2.6
				c-0.8,0-1.5,0.8-1.4,1.6c0,0.8,0.8,1.5,1.6,1.4c0,0,3.1-0.1,5.2,1.8c1.4,1.2,2.1,3.1,2.2,5.6
				C2349.1,635.4,2349.8,636.1,2350.6,636.1C2350.6,636.1,2350.6,636.1,2350.6,636.1z"/>
			<path d="M2353.5,695.2c0,1.5-1.3,3-3.6,4.2c-2.7,1.4-6.3,2.1-10.1,2.1c-8.1,0-13.8-3.3-13.8-6.3c0-1.5,1.3-3,3.6-4.2
				c2.3-1.2,5.4-1.9,8.7-2.1v5.3c0,0.8,0.7,1.5,1.5,1.5c0.8,0,1.5-0.7,1.5-1.5V689C2348.6,689.4,2353.5,692.5,2353.5,695.2z"/>
			<path class="st0" d="M2352.1,634.5c0,0.8-0.6,1.6-1.5,1.6c0,0,0,0-0.1,0c-0.8,0-1.5-0.6-1.5-1.5c-0.1-2.4-0.9-4.3-2.2-5.6
				c-2.1-1.9-5.2-1.8-5.2-1.8c-0.8,0-1.6-0.6-1.6-1.4c0-0.8,0.6-1.6,1.4-1.6c0.2,0,4.3-0.2,7.4,2.6
				C2350.9,628.6,2352,631.2,2352.1,634.5z"/>
		</g>
	</g>
	<g>
		<rect x="2338.3" y="671.8" width="3.1" height="17.2"/>
	</g>
</g>
<g id="Semibold-S">
	<g id="XMLID_6_">
		<g>
			<path d="M2059,651.4v4.1h-8.8c-0.8,0-1.5,0.7-1.5,1.5c0,0.8,0.7,1.5,1.5,1.5h8.8c-0.7,7.7-7.3,13.8-15.2,13.8h-0.7
				c-7.9,0-14.4-6-15.2-13.8h8.4c0.8,0,1.5-0.7,1.5-1.5c0-0.8-0.7-1.5-1.5-1.5h-8.5v-4.1h8.5c0.8,0,1.5-0.7,1.5-1.5
				s-0.7-1.5-1.5-1.5h-8.5v-4.1h8.5c0.8,0,1.5-0.7,1.5-1.5s-0.7-1.5-1.5-1.5h-8.5v-5.4c0-8.4,6.8-15.2,15.2-15.2h0.7
				c8.4,0,15.2,6.8,15.2,15.2v5.4h-8.8c-0.8,0-1.5,0.7-1.5,1.5s0.7,1.5,1.5,1.5h8.8v4.1h-8.8c-0.8,0-1.5,0.7-1.5,1.5
				s0.7,1.5,1.5,1.5H2059z M2053.8,636.3c0.8,0,1.5-0.7,1.4-1.6c-0.1-3.3-1.2-5.8-3.2-7.6c-3.1-2.8-7.1-2.6-7.3-2.5
				c-0.8,0-1.5,0.8-1.4,1.6c0,0.8,0.8,1.5,1.6,1.4c0,0,3-0.1,5.1,1.8c1.4,1.2,2.1,3.1,2.2,5.5
				C2052.2,635.7,2052.9,636.3,2053.8,636.3C2053.7,636.3,2053.8,636.3,2053.8,636.3z"/>
			<path d="M2056.6,694.8c0,1.4-1.3,2.9-3.6,4.1c-2.6,1.4-6.2,2.1-10,2.1c-8,0-13.6-3.3-13.6-6.2c0-1.4,1.3-2.9,3.6-4.1
				c2.3-1.2,5.3-1.9,8.6-2.1v5.3c0,0.8,0.7,1.5,1.5,1.5c0.8,0,1.5-0.7,1.5-1.5v-5.3C2051.7,689.1,2056.6,692.1,2056.6,694.8z"/>
			<path class="st0" d="M2055.2,634.7c0,0.8-0.6,1.5-1.4,1.6c0,0,0,0-0.1,0c-0.8,0-1.5-0.6-1.5-1.4c-0.1-2.4-0.8-4.3-2.2-5.5
				c-2.1-1.9-5.1-1.8-5.1-1.8c-0.8,0-1.5-0.6-1.6-1.4c0-0.8,0.6-1.5,1.4-1.6c0.2,0,4.2-0.2,7.3,2.5
				C2054,628.9,2055.1,631.5,2055.2,634.7z"/>
		</g>
	</g>
	<g>
		<rect x="2041.6" y="671.6" width="3" height="17"/>
	</g>
</g>
<g id="Medium-S">
	<g id="XMLID_5_">
		<g>
			<path d="M1762.2,651.5v4.1h-8.7c-0.8,0-1.5,0.7-1.5,1.5c0,0.8,0.7,1.5,1.5,1.5h8.7c-0.7,7.6-7.2,13.6-15,13.6h-0.6
				c-7.8,0-14.3-6-15-13.6h8.3c0.8,0,1.5-0.7,1.5-1.5c0-0.8-0.7-1.5-1.5-1.5h-8.4v-4.1h8.4c0.8,0,1.5-0.7,1.5-1.5
				c0-0.8-0.7-1.5-1.5-1.5h-8.4v-4.1h8.4c0.8,0,1.5-0.7,1.5-1.5c0-0.8-0.7-1.5-1.5-1.5h-8.4V636c0-8.3,6.8-15.1,15.1-15.1h0.6
				c8.3,0,15.1,6.8,15.1,15.1v5.4h-8.7c-0.8,0-1.5,0.7-1.5,1.5c0,0.8,0.7,1.5,1.5,1.5h8.7v4.1h-8.7c-0.8,0-1.5,0.7-1.5,1.5
				c0,0.8,0.7,1.5,1.5,1.5H1762.2z M1757,636.5c0.8,0,1.5-0.7,1.4-1.6c-0.1-3.2-1.2-5.8-3.2-7.6c-3-2.7-7.1-2.5-7.2-2.5
				c-0.8,0-1.5,0.8-1.4,1.6c0,0.8,0.7,1.5,1.6,1.4c0,0,3-0.1,5.1,1.8c1.3,1.2,2.1,3.1,2.2,5.5C1755.5,635.9,1756.2,636.5,1757,636.5
				C1757,636.5,1757,636.5,1757,636.5z"/>
			<path d="M1759.8,694.5c0,1.4-1.3,2.9-3.6,4.1c-2.6,1.3-6.1,2.1-9.9,2.1c-7.9,0-13.5-3.2-13.5-6.1c0-1.4,1.3-2.9,3.6-4.1
				c2.3-1.2,5.3-1.9,8.5-2v5.2c0,0.8,0.7,1.5,1.5,1.5c0.8,0,1.5-0.7,1.5-1.5v-5.2C1755,688.8,1759.8,691.8,1759.8,694.5z"/>
			<path class="st0" d="M1758.5,635c0,0.8-0.6,1.5-1.4,1.6c0,0,0,0-0.1,0c-0.8,0-1.5-0.6-1.5-1.4c-0.1-2.4-0.8-4.2-2.2-5.5
				c-2.1-1.9-5.1-1.8-5.1-1.8c-0.8,0-1.5-0.6-1.6-1.4c0-0.8,0.6-1.5,1.4-1.6c0.2,0,4.2-0.2,7.2,2.5
				C1757.2,629.2,1758.3,631.7,1758.5,635z"/>
		</g>
	</g>
	<g>
		<rect x="1744.9" y="671.5" width="3" height="16.9"/>
	</g>
</g>
<g id="Regular-S">
	<g id="XMLID_4_">
		<g>
			<path d="M1465.4,651.6v4.1h-8.6c-0.8,0-1.5,0.7-1.5,1.5c0,0.8,0.7,1.5,1.5,1.5h8.6c-0.7,7.6-7.1,13.5-14.8,13.5h-0.6
				c-7.7,0-14.1-5.9-14.8-13.5h8.2c0.8,0,1.5-0.7,1.5-1.5c0-0.8-0.7-1.5-1.5-1.5h-8.3v-4.1h8.3c0.8,0,1.5-0.7,1.5-1.5
				s-0.7-1.5-1.5-1.5h-8.3v-4.1h8.3c0.8,0,1.5-0.7,1.5-1.5s-0.7-1.5-1.5-1.5h-8.3v-5.3c0-8.2,6.7-14.9,14.9-14.9h0.6
				c8.2,0,14.9,6.7,14.9,14.9v5.3h-8.6c-0.8,0-1.5,0.7-1.5,1.5s0.7,1.5,1.5,1.5h8.6v4.1h-8.6c-0.8,0-1.5,0.7-1.5,1.5
				s0.7,1.5,1.5,1.5H1465.4z M1460.3,636.8c0.8,0,1.4-0.7,1.4-1.5c-0.1-3.2-1.2-5.7-3.2-7.5c-3-2.7-7-2.5-7.1-2.5
				c-0.8,0-1.4,0.7-1.4,1.6c0,0.8,0.7,1.4,1.6,1.4c0,0,3-0.1,5,1.8c1.3,1.2,2,3,2.2,5.4C1458.8,636.2,1459.4,636.8,1460.3,636.8
				C1460.2,636.8,1460.3,636.8,1460.3,636.8z"/>
			<path d="M1463,694.1c0,1.4-1.3,2.9-3.5,4c-2.6,1.3-6.1,2.1-9.8,2.1c-7.9,0-13.3-3.2-13.3-6.1c0-1.4,1.3-2.9,3.5-4
				c2.3-1.2,5.2-1.9,8.4-2v5.2c0,0.8,0.7,1.5,1.5,1.5c0.8,0,1.5-0.7,1.5-1.5v-5.2C1458.3,688.5,1463,691.5,1463,694.1z"/>
			<path class="st0" d="M1461.7,635.3c0,0.8-0.6,1.5-1.4,1.5c0,0,0,0-0.1,0c-0.8,0-1.4-0.6-1.5-1.4c-0.1-2.4-0.8-4.2-2.2-5.4
				c-2.1-1.9-5-1.8-5-1.8c-0.8,0-1.5-0.6-1.6-1.4c0-0.8,0.6-1.5,1.4-1.6c0.2,0,4.1-0.2,7.1,2.5
				C1460.5,629.6,1461.5,632.1,1461.7,635.3z"/>
		</g>
	</g>
	<g>
		<rect x="1448.3" y="671.4" width="3" height="16.7"/>
	</g>
</g>
<g id="Light-S_1_">
	<g id="XMLID_3_">
		<g>
			<path d="M1168.5,651.8v4h-8.5c-0.8,0-1.5,0.7-1.5,1.5c0,0.8,0.7,1.5,1.5,1.5h8.4c-0.7,7.4-7,13.2-14.6,13.2h-0.6
				c-7.6,0-13.9-5.8-14.6-13.2h8.1c0.8,0,1.5-0.7,1.5-1.5c0-0.8-0.7-1.5-1.5-1.5h-8.2v-4h8.2c0.8,0,1.5-0.7,1.5-1.5
				s-0.7-1.5-1.5-1.5h-8.2v-4h8.2c0.8,0,1.5-0.7,1.5-1.5c0-0.8-0.7-1.5-1.5-1.5h-8.2v-5.2c0-8.1,6.6-14.6,14.6-14.6h0.6
				c8.1,0,14.6,6.6,14.6,14.6v5.2h-8.5c-0.8,0-1.5,0.7-1.5,1.5c0,0.8,0.7,1.5,1.5,1.5h8.5v4h-8.5c-0.8,0-1.5,0.7-1.5,1.5
				s0.7,1.5,1.5,1.5H1168.5z M1163.5,637.3c0.8,0,1.4-0.7,1.4-1.5c-0.1-3.1-1.2-5.6-3.1-7.3c-2.9-2.7-6.9-2.5-7-2.4
				c-0.8,0-1.4,0.7-1.4,1.5s0.7,1.4,1.5,1.4c0,0,2.9-0.1,4.9,1.7c1.3,1.2,2,3,2.1,5.3C1162,636.7,1162.6,637.3,1163.5,637.3
				C1163.4,637.3,1163.5,637.3,1163.5,637.3z"/>
			<path d="M1166.2,693.6c0,1.4-1.3,2.8-3.5,3.9c-2.5,1.3-6,2-9.6,2c-7.7,0-13.1-3.1-13.1-6c0-1.4,1.3-2.8,3.5-3.9
				c2.2-1.1,5.1-1.8,8.2-2v5.1c0,0.8,0.6,1.5,1.5,1.5c0.8,0,1.5-0.7,1.5-1.5v-5.1C1161.5,688,1166.2,690.9,1166.2,693.6z"/>
			<path class="st0" d="M1164.9,635.8c0,0.8-0.6,1.5-1.4,1.5c0,0,0,0-0.1,0c-0.8,0-1.4-0.6-1.5-1.4c-0.1-2.3-0.8-4.1-2.1-5.3
				c-2-1.8-4.9-1.7-4.9-1.7c-0.8,0-1.5-0.6-1.5-1.4s0.6-1.5,1.4-1.5c0.2,0,4.1-0.2,7,2.4C1163.7,630.2,1164.7,632.6,1164.9,635.8z"
				/>
		</g>
	</g>
	<g>
		<rect x="1151.7" y="671.2" width="2.9" height="16.4"/>
	</g>
</g>
<g id="Thin-S">
	<g id="XMLID_2_">
		<g>
			<path d="M871,652v3.9h-8.3c-0.8,0-1.4,0.6-1.4,1.4c0,0.8,0.6,1.4,1.4,1.4h8.2c-0.7,7.2-6.8,12.9-14.2,12.9h-0.6
				c-7.4,0-13.5-5.7-14.2-12.9h7.9c0.8,0,1.4-0.6,1.4-1.4c0-0.8-0.6-1.4-1.4-1.4h-8V652h8c0.8,0,1.4-0.6,1.4-1.4
				c0-0.8-0.6-1.4-1.4-1.4h-8v-3.9h8c0.8,0,1.4-0.6,1.4-1.4s-0.6-1.4-1.4-1.4h-8v-5.1c0-7.9,6.4-14.3,14.3-14.3h0.6
				c7.9,0,14.3,6.4,14.3,14.3v5.1h-8.3c-0.8,0-1.4,0.6-1.4,1.4s0.6,1.4,1.4,1.4h8.3v3.9h-8.3c-0.8,0-1.4,0.6-1.4,1.4
				c0,0.8,0.6,1.4,1.4,1.4H871z M866.2,637.9c0.8,0,1.4-0.7,1.3-1.5c-0.1-3.1-1.2-5.5-3-7.1c-2.9-2.6-6.7-2.4-6.8-2.4
				c-0.8,0-1.4,0.7-1.3,1.5c0,0.8,0.7,1.4,1.5,1.3c0,0,2.8-0.1,4.8,1.7c1.3,1.2,2,2.9,2.1,5.2C864.7,637.3,865.3,637.9,866.2,637.9
				C866.1,637.9,866.1,637.9,866.2,637.9z"/>
			<path d="M868.8,692.8c0,1.3-1.2,2.8-3.4,3.8c-2.5,1.3-5.8,2-9.4,2c-7.5,0-12.8-3.1-12.8-5.8c0-1.4,1.2-2.8,3.4-3.8
				c2.2-1.1,5-1.8,8-1.9v4.9c0,0.8,0.6,1.4,1.4,1.4c0.8,0,1.4-0.6,1.4-1.4V687C864.2,687.4,868.8,690.2,868.8,692.8z"/>
			<path class="st0" d="M867.5,636.4c0,0.8-0.6,1.4-1.3,1.5c0,0,0,0-0.1,0c-0.8,0-1.4-0.6-1.4-1.4c-0.1-2.3-0.8-4-2.1-5.2
				c-2-1.8-4.8-1.7-4.8-1.7c-0.8,0-1.4-0.6-1.5-1.3c0-0.8,0.5-1.4,1.3-1.5c0.2,0,4-0.2,6.8,2.4C866.4,631,867.4,633.4,867.5,636.4z"
				/>
		</g>
	</g>
	<g>
		<rect x="854.7" y="671" width="2.8" height="16"/>
	</g>
</g>
<g id="Ultralight-S">
	<g id="XMLID_1_">
		<g>
			<path d="M574.1,652.2v3.8h-8.2c-0.8,0-1.4,0.6-1.4,1.4s0.6,1.4,1.4,1.4h8.1c-0.7,7.1-6.7,12.7-14,12.7h-0.6
				c-7.3,0-13.3-5.6-14-12.7h7.8c0.8,0,1.4-0.6,1.4-1.4s-0.6-1.4-1.4-1.4h-7.8v-3.8h7.8c0.8,0,1.4-0.6,1.4-1.4s-0.6-1.4-1.4-1.4
				h-7.8v-3.8h7.8c0.8,0,1.4-0.6,1.4-1.4s-0.6-1.4-1.4-1.4h-7.8v-5c0-7.8,6.3-14.1,14.1-14.1h0.6c7.8,0,14.1,6.3,14.1,14.1v5h-8.2
				c-0.8,0-1.4,0.6-1.4,1.4s0.6,1.4,1.4,1.4h8.2v3.8h-8.2c-0.8,0-1.4,0.6-1.4,1.4s0.6,1.4,1.4,1.4H574.1z M569.3,638.3
				c0.8,0,1.4-0.7,1.3-1.5c-0.1-3-1.1-5.4-3-7.1c-2.8-2.5-6.6-2.4-6.7-2.4c-0.8,0-1.4,0.7-1.3,1.5c0,0.8,0.7,1.4,1.5,1.3
				c0,0,2.8-0.1,4.7,1.7c1.2,1.1,1.9,2.8,2,5.1C567.9,637.7,568.5,638.3,569.3,638.3C569.3,638.3,569.3,638.3,569.3,638.3z"/>
			<path d="M571.9,692.4c0,1.3-1.2,2.7-3.3,3.8c-2.4,1.2-5.7,1.9-9.3,1.9c-7.4,0-12.6-3-12.6-5.7c0-1.3,1.2-2.7,3.3-3.8
				c2.1-1.1,4.9-1.8,7.9-1.9v4.9c0,0.8,0.6,1.4,1.4,1.4c0.8,0,1.4-0.6,1.4-1.4v-4.9C567.4,687,571.9,689.8,571.9,692.4z"/>
			<path class="st0" d="M570.6,636.8c0,0.8-0.6,1.4-1.3,1.5c0,0,0,0-0.1,0c-0.7,0-1.4-0.6-1.4-1.3c-0.1-2.2-0.8-4-2-5.1
				c-1.9-1.8-4.7-1.7-4.7-1.7c-0.8,0-1.4-0.6-1.5-1.3c0-0.8,0.5-1.4,1.3-1.5c0.2,0,3.9-0.2,6.7,2.4
				C569.5,631.4,570.5,633.8,570.6,636.8z"/>
		</g>
	</g>
	<g>
		<rect x="558" y="670.9" width="2.8" height="15.7"/>
	</g>
</g>
</svg>
